<svg width="200" height="80" viewBox="0 0 200 80" xmlns="http://www.w3.org/2000/svg">
<rect width="200" height="80" fill="#0d1117"/>
<g transform="translate(100,32)">
  <rect x="-28" y="0" width="56" height="36" fill="none" stroke="#C9A84C" stroke-width="1.5"/>
  <rect x="-28" y="-14" width="12" height="14" fill="none" stroke="#C9A84C" stroke-width="1.5"/>
  <rect x="-8" y="-14" width="12" height="14" fill="none" stroke="#C9A84C" stroke-width="1.5"/>
  <rect x="16" y="-14" width="12" height="14" fill="none" stroke="#C9A84C" stroke-width="1.5"/>
  <path d="M -10 36 L -10 22 Q 0 12 10 22 L 10 36" fill="none" stroke="#C9A84C" stroke-width="1.2"/>
  <rect x="-20" y="4" width="8" height="10" rx="4" fill="none" stroke="#C9A84C" stroke-width="1"/>
  <rect x="12" y="4" width="8" height="10" rx="4" fill="none" stroke="#C9A84C" stroke-width="1"/>
  <line x1="-34" y1="36" x2="34" y2="36" stroke="#C9A84C" stroke-width="1.5"/>
  <line x1="-34" y1="24" x2="-28" y2="24" stroke="#7a5c1e" stroke-width="1"/>
  <line x1="28" y1="24" x2="34" y2="24" stroke="#7a5c1e" stroke-width="1"/>
  <line x1="-34" y1="24" x2="-34" y2="36" stroke="#7a5c1e" stroke-width="1"/>
  <line x1="34" y1="24" x2="34" y2="36" stroke="#7a5c1e" stroke-width="1"/>
</g>
<text x="100" y="56" text-anchor="middle" font-family="Georgia, serif" font-size="10" fill="#C9A84C" letter-spacing="3">THE STRONGHOLD</text>
<text x="100" y="69" text-anchor="middle" font-family="Georgia, serif" font-size="8" fill="#7a5c1e" letter-spacing="2">BACKEND</text>
</svg>
